<svg width="20" height="19" viewBox="0 0 20 19" fill="none" xmlns="http://www.w3.org/2000/svg">
<path d="M18.8379 14.2402C19.1296 14.5319 19.2754 14.8861 19.2754 15.3027C19.2754 15.7194 19.1296 16.0736 18.8379 16.3652L16.7129 18.4902C16.4212 18.7819 16.0671 18.9277 15.6504 18.9277C15.2337 18.9277 14.8796 18.7819 14.5879 18.4902L9.99414 13.8965L5.40039 18.4902C5.10872 18.7819 4.75456 18.9277 4.33789 18.9277C3.92122 18.9277 3.56706 18.7819 3.27539 18.4902L1.15039 16.3652C0.858724 16.0736 0.712891 15.7194 0.712891 15.3027C0.712891 14.8861 0.858724 14.5319 1.15039 14.2402L5.74414 9.64648L1.15039 5.05273C0.858724 4.76107 0.712891 4.4069 0.712891 3.99023C0.712891 3.57357 0.858724 3.2194 1.15039 2.92773L3.27539 0.802733C3.56706 0.511067 3.92122 0.365233 4.33789 0.365233C4.75456 0.365233 5.10872 0.511067 5.40039 0.802733L9.99414 5.39648L14.5879 0.802733C14.8796 0.511067 15.2337 0.365233 15.6504 0.365233C16.0671 0.365233 16.4212 0.511067 16.7129 0.802733L18.8379 2.92773C19.1296 3.2194 19.2754 3.57357 19.2754 3.99023C19.2754 4.4069 19.1296 4.76107 18.8379 5.05273L14.2441 9.64648L18.8379 14.2402Z" fill="white"/>
</svg>
