<svg width="16" height="16" viewBox="0 0 16 16" fill="none" xmlns="http://www.w3.org/2000/svg">
<path d="M0.0831461 1.81083V6.31083C0.0831461 6.48493 0.146762 6.6356 0.273995 6.76283C0.401227 6.89007 0.551896 6.95368 0.726004 6.95368H5.226C5.50725 6.95368 5.7048 6.81975 5.81864 6.5519C5.93248 6.29074 5.8856 6.05971 5.67801 5.85882L4.29185 4.47266C5.28292 3.55524 6.45145 3.09654 7.79743 3.09654C8.49386 3.09654 9.16016 3.23382 9.79632 3.50837C10.4258 3.77623 10.9715 4.14118 11.4336 4.60324C11.8956 5.06529 12.264 5.6144 12.5385 6.25056C12.8064 6.88002 12.9403 7.54297 12.9403 8.2394C12.9403 8.93583 12.8064 9.60212 12.5385 10.2383C12.264 10.8677 11.8956 11.4135 11.4336 11.8756C10.9715 12.3376 10.4258 12.7059 9.79632 12.9805C9.16016 13.2483 8.49386 13.3823 7.79743 13.3823C7.00056 13.3823 6.24721 13.2081 5.53739 12.8599C4.82757 12.5117 4.22824 12.0195 3.7394 11.3834C3.69252 11.3164 3.61551 11.2762 3.50837 11.2628C3.40792 11.2628 3.32422 11.293 3.25725 11.3532L1.88114 12.7394C1.82087 12.793 1.79074 12.8633 1.79074 12.9503C1.78404 13.0307 1.80748 13.1044 1.86105 13.1713C2.59096 14.0552 3.47489 14.7383 4.51283 15.2204C5.55078 15.7093 6.64565 15.9537 7.79743 15.9537C8.84208 15.9537 9.83984 15.7494 10.7907 15.341C11.7416 14.9325 12.5619 14.3834 13.2517 13.6936C13.9414 13.0039 14.4905 12.1836 14.899 11.2327C15.3075 10.2818 15.5117 9.28404 15.5117 8.2394C15.5117 7.19475 15.3075 6.19699 14.899 5.24609C14.4905 4.2952 13.9414 3.47489 13.2517 2.78516C12.5619 2.09542 11.7416 1.54632 10.7907 1.13783C9.83984 0.729352 8.84208 0.525111 7.79743 0.525111C6.81306 0.525111 5.86216 0.712611 4.94475 1.08761C4.02065 1.45591 3.20033 1.97824 2.48382 2.65458L1.17801 1.35882C0.983816 1.15123 0.749441 1.10435 0.474888 1.21819C0.213727 1.33203 0.0831461 1.52958 0.0831461 1.81083Z" fill="white"/>
</svg>
