<svg width="227" height="230" viewBox="0 0 227 230" fill="none" xmlns="http://www.w3.org/2000/svg">
<path d="M196.426 39.2358C188.86 30.8207 175.905 30.1326 167.49 37.6988C159.075 45.265 158.387 58.2203 165.953 66.6354C177.131 79.0674 183.908 95.4631 183.908 113.491C183.908 152.212 152.518 183.602 113.796 183.602C75.0752 183.602 43.6853 152.212 43.6853 113.491C43.6853 109.57 44.0052 105.739 44.6161 102.019C46.4498 90.852 38.8839 80.3129 27.7171 78.4792C16.5502 76.6454 6.01118 84.2113 4.17742 95.3782C3.20744 101.285 2.70508 107.337 2.70508 113.491C2.70508 174.845 52.4424 224.582 113.796 224.582C175.151 224.582 224.888 174.845 224.888 113.491C224.888 84.9594 214.105 58.8983 196.426 39.2358Z" fill="#F15A4F" stroke="white" stroke-width="4" stroke-linecap="round" stroke-linejoin="round"/>
<path d="M61.4282 66.6354C68.9944 58.2203 68.3063 45.265 59.8912 37.6988C51.4761 30.1326 38.5208 30.8207 30.9546 39.2358C22.4721 48.67 15.5733 59.578 10.6913 71.5431C6.41614 82.0209 11.4444 93.9805 21.9222 98.2556C32.3999 102.531 44.3595 97.5025 48.6347 87.0248C51.7058 79.4978 56.0569 72.6094 61.4282 66.6354Z" fill="#47A3CC" stroke="#F7F9FB" stroke-width="4" stroke-linecap="round" stroke-linejoin="round"/>
<path d="M73.2961 55.9357C84.6442 48.0202 98.4225 43.3807 113.346 43.3807C128.269 43.3807 142.048 48.0202 153.396 55.9357C162.677 62.4098 175.45 60.1339 181.924 50.8524C188.398 41.5708 186.122 28.7984 176.84 22.3243C158.838 9.76731 136.922 2.40039 113.346 2.40039C89.7701 2.40039 67.8537 9.76731 49.8514 22.3243C40.5699 28.7984 38.294 41.5708 44.7681 50.8524C51.2422 60.1339 64.0146 62.4098 73.2961 55.9357Z" fill="#37AF84" stroke="#F7F9FB" stroke-width="4" stroke-linecap="round" stroke-linejoin="round"/>
<path d="M196.429 39.2358C188.863 30.8207 175.907 30.1326 167.492 37.6988C159.077 45.265 158.389 58.2203 165.955 66.6354C177.133 79.0674 183.91 95.4631 183.91 113.491C183.91 152.212 152.52 183.602 113.799 183.602C102.482 183.602 93.3086 192.775 93.3086 204.092C93.3086 215.408 102.482 224.582 113.799 224.582C175.153 224.582 224.89 174.845 224.89 113.491C224.89 84.9594 214.108 58.8983 196.429 39.2358Z" fill="#0E395F" stroke="#F7F9FB" stroke-width="4" stroke-linecap="round" stroke-linejoin="round"/>
<path fill-rule="evenodd" clip-rule="evenodd" d="M113.795 177.804C119.781 177.804 125.537 176.998 130.98 175.504C144.767 171.72 159.011 179.829 162.795 193.615C166.579 207.402 158.47 221.646 144.683 225.43C134.817 228.138 124.453 229.576 113.795 229.576C99.4984 229.576 87.9088 217.987 87.9088 203.69C87.9088 189.393 99.4984 177.804 113.795 177.804Z" fill="#F7F9FB"/>
<path fill-rule="evenodd" clip-rule="evenodd" d="M113.798 185.201C120.452 185.201 126.866 184.305 132.941 182.638C142.789 179.935 152.963 185.727 155.666 195.574C158.369 205.422 152.577 215.596 142.729 218.299C133.495 220.834 123.789 222.182 113.798 222.182C90.6449 222.182 69.1256 214.948 51.448 202.617C43.0725 196.775 41.0187 185.249 46.8609 176.874C52.703 168.498 64.2288 166.445 72.6044 172.287C84.2773 180.429 98.4528 185.201 113.798 185.201Z" fill="#F15A4F"/>
</svg>
