<svg width="828" height="387" viewBox="0 0 828 387" fill="none" xmlns="http://www.w3.org/2000/svg">
<path d="M1.15813 9.5V7.836H4.48613V19.5H2.64613V9.5H1.15813ZM14.8319 9.404H9.47188V12.588C9.69588 12.2893 10.0265 12.0387 10.4639 11.836C10.9119 11.6333 11.3865 11.532 11.8879 11.532C12.7839 11.532 13.5092 11.724 14.0639 12.108C14.6292 12.492 15.0292 12.9773 15.2639 13.564C15.5092 14.1507 15.6319 14.7693 15.6319 15.42C15.6319 16.2093 15.4772 16.9133 15.1679 17.532C14.8692 18.14 14.4159 18.62 13.8079 18.972C13.2105 19.324 12.4745 19.5 11.5999 19.5C10.4372 19.5 9.50388 19.212 8.79988 18.636C8.09588 18.06 7.67454 17.2973 7.53588 16.348H9.31188C9.42921 16.8493 9.69054 17.2493 10.0959 17.548C10.5012 17.836 11.0079 17.98 11.6159 17.98C12.3732 17.98 12.9385 17.7507 13.3119 17.292C13.6959 16.8333 13.8879 16.2253 13.8879 15.468C13.8879 14.7 13.6959 14.1133 13.3119 13.708C12.9279 13.292 12.3625 13.084 11.6159 13.084C11.0932 13.084 10.6505 13.2173 10.2879 13.484C9.93588 13.74 9.67988 14.092 9.51988 14.54H7.79188V7.804H14.8319V9.404ZM29.8026 8.38V19.5H27.9786V11.884L24.5866 19.5H23.3226L19.9146 11.884V19.5H18.0906V8.38H20.0586L23.9626 17.1L27.8506 8.38H29.8026Z" fill="#A0A0A0"/>
<path d="M1.12688 91.75V90.086H4.45488V101.75H2.61488V91.75H1.12688ZM7.28063 95.766C7.28063 93.9207 7.58996 92.4807 8.20863 91.446C8.83796 90.4007 9.91529 89.878 11.4406 89.878C12.966 89.878 14.038 90.4007 14.6566 91.446C15.286 92.4807 15.6006 93.9207 15.6006 95.766C15.6006 97.6327 15.286 99.094 14.6566 100.15C14.038 101.195 12.966 101.718 11.4406 101.718C9.91529 101.718 8.83796 101.195 8.20863 100.15C7.58996 99.094 7.28063 97.6327 7.28063 95.766ZM13.8086 95.766C13.8086 94.902 13.75 94.1713 13.6326 93.574C13.526 92.9767 13.302 92.4913 12.9606 92.118C12.6193 91.734 12.1126 91.542 11.4406 91.542C10.7686 91.542 10.262 91.734 9.92063 92.118C9.57929 92.4913 9.34996 92.9767 9.23263 93.574C9.12596 94.1713 9.07263 94.902 9.07263 95.766C9.07263 96.662 9.12596 97.414 9.23263 98.022C9.33929 98.63 9.56329 99.1207 9.90463 99.494C10.2566 99.8673 10.7686 100.054 11.4406 100.054C12.1126 100.054 12.6193 99.8673 12.9606 99.494C13.3126 99.1207 13.542 98.63 13.6486 98.022C13.7553 97.414 13.8086 96.662 13.8086 95.766ZM29.8026 90.63V101.75H27.9786V94.134L24.5866 101.75H23.3226L19.9146 94.134V101.75H18.0906V90.63H20.0586L23.9626 99.35L27.8506 90.63H29.8026Z" fill="#A0A0A0"/>
<path d="M14.8319 173.904H9.47188V177.088C9.69588 176.789 10.0265 176.539 10.4639 176.336C10.9119 176.133 11.3865 176.032 11.8879 176.032C12.7839 176.032 13.5092 176.224 14.0639 176.608C14.6292 176.992 15.0292 177.477 15.2639 178.064C15.5092 178.651 15.6319 179.269 15.6319 179.92C15.6319 180.709 15.4772 181.413 15.1679 182.032C14.8692 182.64 14.4159 183.12 13.8079 183.472C13.2105 183.824 12.4745 184 11.5999 184C10.4372 184 9.50388 183.712 8.79988 183.136C8.09588 182.56 7.67454 181.797 7.53588 180.848H9.31188C9.42921 181.349 9.69054 181.749 10.0959 182.048C10.5012 182.336 11.0079 182.48 11.6159 182.48C12.3732 182.48 12.9385 182.251 13.3119 181.792C13.6959 181.333 13.8879 180.725 13.8879 179.968C13.8879 179.2 13.6959 178.613 13.3119 178.208C12.9279 177.792 12.3625 177.584 11.6159 177.584C11.0932 177.584 10.6505 177.717 10.2879 177.984C9.93588 178.24 9.67988 178.592 9.51988 179.04H7.79188V172.304H14.8319V173.904ZM29.8026 172.88V184H27.9786V176.384L24.5866 184H23.3226L19.9146 176.384V184H18.0906V172.88H20.0586L23.9626 181.6L27.8506 172.88H29.8026Z" fill="#A0A0A0"/>
<path d="M11.6969 256.25V254.586H15.0249V266.25H13.1849V256.25H11.6969ZM29.8026 255.13V266.25H27.9786V258.634L24.5866 266.25H23.3226L19.9146 258.634V266.25H18.0906V255.13H20.0586L23.9626 263.85L27.8506 255.13H29.8026Z" fill="#A0A0A0"/>
<path d="M21.71 342.516C21.71 340.671 22.0193 339.231 22.638 338.196C23.2673 337.151 24.3447 336.628 25.87 336.628C27.3953 336.628 28.4673 337.151 29.086 338.196C29.7153 339.231 30.03 340.671 30.03 342.516C30.03 344.383 29.7153 345.844 29.086 346.9C28.4673 347.945 27.3953 348.468 25.87 348.468C24.3447 348.468 23.2673 347.945 22.638 346.9C22.0193 345.844 21.71 344.383 21.71 342.516ZM28.238 342.516C28.238 341.652 28.1793 340.921 28.062 340.324C27.9553 339.727 27.7313 339.241 27.39 338.868C27.0487 338.484 26.542 338.292 25.87 338.292C25.198 338.292 24.6913 338.484 24.35 338.868C24.0087 339.241 23.7793 339.727 23.662 340.324C23.5553 340.921 23.502 341.652 23.502 342.516C23.502 343.412 23.5553 344.164 23.662 344.772C23.7687 345.38 23.9927 345.871 24.334 346.244C24.686 346.617 25.198 346.804 25.87 346.804C26.542 346.804 27.0487 346.617 27.39 346.244C27.742 345.871 27.9713 345.38 28.078 344.772C28.1847 344.164 28.238 343.412 28.238 342.516Z" fill="#A0A0A0"/>
<line x1="47.5" y1="16" x2="827.5" y2="16" stroke="#E5E5E5" stroke-opacity="0.8" stroke-linecap="round"/>
<line x1="47.5" y1="101" x2="827.5" y2="101" stroke="#E5E5E5" stroke-opacity="0.8" stroke-linecap="round"/>
<line x1="47.5" y1="186" x2="827.5" y2="186" stroke="#E5E5E5" stroke-opacity="0.8" stroke-linecap="round"/>
<line x1="47.5" y1="271" x2="827.5" y2="271" stroke="#E5E5E5" stroke-opacity="0.8" stroke-linecap="round"/>
<line x1="47.5" y1="356" x2="827.5" y2="356" stroke="#E5E5E5" stroke-opacity="0.8" stroke-linecap="round"/>
<path d="M98.0262 371.88V383H96.2022V375.384L92.8102 383H91.5462L88.1382 375.384V383H86.3142V371.88H88.2822L92.1862 380.6L96.0742 371.88H98.0262ZM104.568 383.144C103.736 383.144 102.984 382.957 102.312 382.584C101.64 382.2 101.112 381.667 100.728 380.984C100.344 380.291 100.152 379.491 100.152 378.584C100.152 377.688 100.349 376.893 100.744 376.2C101.138 375.507 101.677 374.973 102.36 374.6C103.042 374.227 103.805 374.04 104.648 374.04C105.49 374.04 106.253 374.227 106.936 374.6C107.618 374.973 108.157 375.507 108.552 376.2C108.946 376.893 109.144 377.688 109.144 378.584C109.144 379.48 108.941 380.275 108.536 380.968C108.13 381.661 107.576 382.2 106.872 382.584C106.178 382.957 105.41 383.144 104.568 383.144ZM104.568 381.56C105.037 381.56 105.474 381.448 105.88 381.224C106.296 381 106.632 380.664 106.888 380.216C107.144 379.768 107.272 379.224 107.272 378.584C107.272 377.944 107.149 377.405 106.904 376.968C106.658 376.52 106.333 376.184 105.928 375.96C105.522 375.736 105.085 375.624 104.616 375.624C104.146 375.624 103.709 375.736 103.304 375.96C102.909 376.184 102.594 376.52 102.36 376.968C102.125 377.405 102.008 377.944 102.008 378.584C102.008 379.533 102.248 380.269 102.728 380.792C103.218 381.304 103.832 381.56 104.568 381.56ZM115.715 374.04C116.408 374.04 117.027 374.184 117.571 374.472C118.125 374.76 118.557 375.187 118.867 375.752C119.176 376.317 119.331 377 119.331 377.8V383H117.523V378.072C117.523 377.283 117.325 376.68 116.931 376.264C116.536 375.837 115.997 375.624 115.315 375.624C114.632 375.624 114.088 375.837 113.683 376.264C113.288 376.68 113.091 377.283 113.091 378.072V383H111.267V374.184H113.091V375.192C113.389 374.829 113.768 374.547 114.227 374.344C114.696 374.141 115.192 374.04 115.715 374.04Z" fill="#A0A0A0"/>
<path d="M207.774 371.88V373.368H204.814V383H202.99V373.368H200.014V371.88H207.774ZM217.925 374.184V383H216.101V381.96C215.813 382.323 215.434 382.611 214.965 382.824C214.506 383.027 214.015 383.128 213.493 383.128C212.799 383.128 212.175 382.984 211.621 382.696C211.077 382.408 210.645 381.981 210.325 381.416C210.015 380.851 209.861 380.168 209.861 379.368V374.184H211.669V379.096C211.669 379.885 211.866 380.493 212.261 380.92C212.655 381.336 213.194 381.544 213.877 381.544C214.559 381.544 215.098 381.336 215.493 380.92C215.898 380.493 216.101 379.885 216.101 379.096V374.184H217.925ZM228.731 378.376C228.731 378.707 228.71 379.005 228.667 379.272H221.931C221.985 379.976 222.246 380.541 222.715 380.968C223.185 381.395 223.761 381.608 224.443 381.608C225.425 381.608 226.118 381.197 226.523 380.376H228.491C228.225 381.187 227.739 381.853 227.035 382.376C226.342 382.888 225.478 383.144 224.443 383.144C223.601 383.144 222.843 382.957 222.171 382.584C221.51 382.2 220.987 381.667 220.603 380.984C220.23 380.291 220.043 379.491 220.043 378.584C220.043 377.677 220.225 376.883 220.587 376.2C220.961 375.507 221.478 374.973 222.139 374.6C222.811 374.227 223.579 374.04 224.443 374.04C225.275 374.04 226.017 374.221 226.667 374.584C227.318 374.947 227.825 375.459 228.187 376.12C228.55 376.771 228.731 377.523 228.731 378.376ZM226.827 377.8C226.817 377.128 226.577 376.589 226.107 376.184C225.638 375.779 225.057 375.576 224.363 375.576C223.734 375.576 223.195 375.779 222.747 376.184C222.299 376.579 222.033 377.117 221.947 377.8H226.827Z" fill="#A0A0A0"/>
<path d="M322.937 371.88L319.641 383H317.577L315.241 374.584L312.761 383L310.713 383.016L307.561 371.88H309.497L311.801 380.936L314.297 371.88H316.345L318.665 380.888L320.985 371.88H322.937ZM332.841 378.376C332.841 378.707 332.82 379.005 332.777 379.272H326.041C326.094 379.976 326.356 380.541 326.825 380.968C327.294 381.395 327.87 381.608 328.553 381.608C329.534 381.608 330.228 381.197 330.633 380.376H332.601C332.334 381.187 331.849 381.853 331.145 382.376C330.452 382.888 329.588 383.144 328.553 383.144C327.71 383.144 326.953 382.957 326.281 382.584C325.62 382.2 325.097 381.667 324.713 380.984C324.34 380.291 324.153 379.491 324.153 378.584C324.153 377.677 324.334 376.883 324.697 376.2C325.07 375.507 325.588 374.973 326.249 374.6C326.921 374.227 327.689 374.04 328.553 374.04C329.385 374.04 330.126 374.221 330.777 374.584C331.428 374.947 331.934 375.459 332.297 376.12C332.66 376.771 332.841 377.523 332.841 378.376ZM330.937 377.8C330.926 377.128 330.686 376.589 330.217 376.184C329.748 375.779 329.166 375.576 328.473 375.576C327.844 375.576 327.305 375.779 326.857 376.184C326.409 376.579 326.142 377.117 326.057 377.8H330.937ZM334.348 378.552C334.348 377.667 334.529 376.883 334.892 376.2C335.265 375.517 335.767 374.989 336.396 374.616C337.036 374.232 337.745 374.04 338.524 374.04C339.1 374.04 339.665 374.168 340.22 374.424C340.785 374.669 341.233 375 341.564 375.416V371.16H343.404V383H341.564V381.672C341.265 382.099 340.849 382.451 340.316 382.728C339.793 383.005 339.191 383.144 338.508 383.144C337.74 383.144 337.036 382.952 336.396 382.568C335.767 382.173 335.265 381.629 334.892 380.936C334.529 380.232 334.348 379.437 334.348 378.552ZM341.564 378.584C341.564 377.976 341.436 377.448 341.18 377C340.935 376.552 340.609 376.211 340.204 375.976C339.799 375.741 339.361 375.624 338.892 375.624C338.423 375.624 337.985 375.741 337.58 375.976C337.175 376.2 336.844 376.536 336.588 376.984C336.343 377.421 336.22 377.944 336.22 378.552C336.22 379.16 336.343 379.693 336.588 380.152C336.844 380.611 337.175 380.963 337.58 381.208C337.996 381.443 338.433 381.56 338.892 381.56C339.361 381.56 339.799 381.443 340.204 381.208C340.609 380.973 340.935 380.632 341.18 380.184C341.436 379.725 341.564 379.192 341.564 378.584Z" fill="#A0A0A0"/>
<path d="M430.658 371.88V373.368H427.698V383H425.874V373.368H422.898V371.88H430.658ZM437.386 374.04C438.058 374.04 438.655 374.184 439.178 374.472C439.711 374.76 440.127 375.187 440.426 375.752C440.735 376.317 440.89 377 440.89 377.8V383H439.082V378.072C439.082 377.283 438.884 376.68 438.49 376.264C438.095 375.837 437.556 375.624 436.874 375.624C436.191 375.624 435.647 375.837 435.242 376.264C434.847 376.68 434.65 377.283 434.65 378.072V383H432.826V371.16H434.65V375.208C434.959 374.835 435.348 374.547 435.818 374.344C436.298 374.141 436.82 374.04 437.386 374.04ZM451.52 374.184V383H449.696V381.96C449.408 382.323 449.03 382.611 448.56 382.824C448.102 383.027 447.611 383.128 447.088 383.128C446.395 383.128 445.771 382.984 445.216 382.696C444.672 382.408 444.24 381.981 443.92 381.416C443.611 380.851 443.456 380.168 443.456 379.368V374.184H445.264V379.096C445.264 379.885 445.462 380.493 445.856 380.92C446.251 381.336 446.79 381.544 447.472 381.544C448.155 381.544 448.694 381.336 449.088 380.92C449.494 380.493 449.696 379.885 449.696 379.096V374.184H451.52Z" fill="#A0A0A0"/>
<path d="M547.198 371.88V373.368H542.478V376.648H546.158V378.136H542.478V383H540.654V371.88H547.198ZM551.032 375.464C551.299 375.016 551.651 374.669 552.088 374.424C552.536 374.168 553.064 374.04 553.672 374.04V375.928H553.208C552.494 375.928 551.95 376.109 551.576 376.472C551.214 376.835 551.032 377.464 551.032 378.36V383H549.208V374.184H551.032V375.464ZM556.597 373.016C556.266 373.016 555.989 372.904 555.765 372.68C555.541 372.456 555.429 372.179 555.429 371.848C555.429 371.517 555.541 371.24 555.765 371.016C555.989 370.792 556.266 370.68 556.597 370.68C556.917 370.68 557.189 370.792 557.413 371.016C557.637 371.24 557.749 371.517 557.749 371.848C557.749 372.179 557.637 372.456 557.413 372.68C557.189 372.904 556.917 373.016 556.597 373.016ZM557.493 374.184V383H555.669V374.184H557.493Z" fill="#A0A0A0"/>
<path d="M651.961 383.112C651.214 383.112 650.542 382.984 649.945 382.728C649.347 382.461 648.878 382.088 648.537 381.608C648.195 381.128 648.025 380.568 648.025 379.928H649.977C650.019 380.408 650.206 380.803 650.537 381.112C650.878 381.421 651.353 381.576 651.961 381.576C652.59 381.576 653.081 381.427 653.433 381.128C653.785 380.819 653.961 380.424 653.961 379.944C653.961 379.571 653.849 379.267 653.625 379.032C653.411 378.797 653.139 378.616 652.809 378.488C652.489 378.36 652.041 378.221 651.465 378.072C650.739 377.88 650.147 377.688 649.689 377.496C649.241 377.293 648.857 376.984 648.537 376.568C648.217 376.152 648.057 375.597 648.057 374.904C648.057 374.264 648.217 373.704 648.537 373.224C648.857 372.744 649.305 372.376 649.881 372.12C650.457 371.864 651.123 371.736 651.881 371.736C652.958 371.736 653.838 372.008 654.521 372.552C655.214 373.085 655.598 373.821 655.673 374.76H653.657C653.625 374.355 653.433 374.008 653.081 373.72C652.729 373.432 652.265 373.288 651.689 373.288C651.166 373.288 650.739 373.421 650.409 373.688C650.078 373.955 649.913 374.339 649.913 374.84C649.913 375.181 650.014 375.464 650.217 375.688C650.43 375.901 650.697 376.072 651.017 376.2C651.337 376.328 651.774 376.467 652.329 376.616C653.065 376.819 653.662 377.021 654.121 377.224C654.59 377.427 654.985 377.741 655.305 378.168C655.635 378.584 655.801 379.144 655.801 379.848C655.801 380.413 655.646 380.947 655.337 381.448C655.038 381.949 654.595 382.355 654.009 382.664C653.433 382.963 652.75 383.112 651.961 383.112ZM657.665 378.552C657.665 377.667 657.846 376.883 658.209 376.2C658.582 375.517 659.083 374.989 659.713 374.616C660.353 374.232 661.057 374.04 661.825 374.04C662.518 374.04 663.121 374.179 663.633 374.456C664.155 374.723 664.571 375.059 664.881 375.464V374.184H666.721V383H664.881V381.688C664.571 382.104 664.15 382.451 663.617 382.728C663.083 383.005 662.475 383.144 661.793 383.144C661.035 383.144 660.342 382.952 659.713 382.568C659.083 382.173 658.582 381.629 658.209 380.936C657.846 380.232 657.665 379.437 657.665 378.552ZM664.881 378.584C664.881 377.976 664.753 377.448 664.497 377C664.251 376.552 663.926 376.211 663.521 375.976C663.115 375.741 662.678 375.624 662.209 375.624C661.739 375.624 661.302 375.741 660.897 375.976C660.491 376.2 660.161 376.536 659.905 376.984C659.659 377.421 659.537 377.944 659.537 378.552C659.537 379.16 659.659 379.693 659.905 380.152C660.161 380.611 660.491 380.963 660.897 381.208C661.313 381.443 661.75 381.56 662.209 381.56C662.678 381.56 663.115 381.443 663.521 381.208C663.926 380.973 664.251 380.632 664.497 380.184C664.753 379.725 664.881 379.192 664.881 378.584ZM671.565 375.672V380.552C671.565 380.883 671.639 381.123 671.789 381.272C671.949 381.411 672.215 381.48 672.589 381.48H673.709V383H672.269C671.447 383 670.818 382.808 670.381 382.424C669.943 382.04 669.725 381.416 669.725 380.552V375.672H668.685V374.184H669.725V371.992H671.565V374.184H673.709V375.672H671.565Z" fill="#A0A0A0"/>
<path d="M761.539 383.112C760.792 383.112 760.12 382.984 759.523 382.728C758.925 382.461 758.456 382.088 758.115 381.608C757.773 381.128 757.603 380.568 757.603 379.928H759.555C759.597 380.408 759.784 380.803 760.115 381.112C760.456 381.421 760.931 381.576 761.539 381.576C762.168 381.576 762.659 381.427 763.011 381.128C763.363 380.819 763.539 380.424 763.539 379.944C763.539 379.571 763.427 379.267 763.203 379.032C762.989 378.797 762.717 378.616 762.387 378.488C762.067 378.36 761.619 378.221 761.043 378.072C760.317 377.88 759.725 377.688 759.267 377.496C758.819 377.293 758.435 376.984 758.115 376.568C757.795 376.152 757.635 375.597 757.635 374.904C757.635 374.264 757.795 373.704 758.115 373.224C758.435 372.744 758.883 372.376 759.459 372.12C760.035 371.864 760.701 371.736 761.459 371.736C762.536 371.736 763.416 372.008 764.099 372.552C764.792 373.085 765.176 373.821 765.251 374.76H763.235C763.203 374.355 763.011 374.008 762.659 373.72C762.307 373.432 761.843 373.288 761.267 373.288C760.744 373.288 760.317 373.421 759.987 373.688C759.656 373.955 759.491 374.339 759.491 374.84C759.491 375.181 759.592 375.464 759.795 375.688C760.008 375.901 760.275 376.072 760.595 376.2C760.915 376.328 761.352 376.467 761.907 376.616C762.643 376.819 763.24 377.021 763.699 377.224C764.168 377.427 764.563 377.741 764.883 378.168C765.213 378.584 765.379 379.144 765.379 379.848C765.379 380.413 765.224 380.947 764.915 381.448C764.616 381.949 764.173 382.355 763.587 382.664C763.011 382.963 762.328 383.112 761.539 383.112ZM775.835 374.184V383H774.011V381.96C773.723 382.323 773.344 382.611 772.875 382.824C772.416 383.027 771.926 383.128 771.403 383.128C770.71 383.128 770.086 382.984 769.531 382.696C768.987 382.408 768.555 381.981 768.235 381.416C767.926 380.851 767.771 380.168 767.771 379.368V374.184H769.579V379.096C769.579 379.885 769.776 380.493 770.171 380.92C770.566 381.336 771.104 381.544 771.787 381.544C772.47 381.544 773.008 381.336 773.403 380.92C773.808 380.493 774.011 379.885 774.011 379.096V374.184H775.835ZM783.01 374.04C783.703 374.04 784.322 374.184 784.866 374.472C785.42 374.76 785.852 375.187 786.162 375.752C786.471 376.317 786.626 377 786.626 377.8V383H784.818V378.072C784.818 377.283 784.62 376.68 784.226 376.264C783.831 375.837 783.292 375.624 782.61 375.624C781.927 375.624 781.383 375.837 780.978 376.264C780.583 376.68 780.386 377.283 780.386 378.072V383H778.562V374.184H780.386V375.192C780.684 374.829 781.063 374.547 781.522 374.344C781.991 374.141 782.487 374.04 783.01 374.04Z" fill="#A0A0A0"/>
<path d="M65 307.5C77.3323 291.437 105.465 259.713 119.339 261.319C136.681 263.327 151.711 287.421 171.366 287.421C191.021 287.421 207.645 225.177 231.486 241.24C282.778 275.8 270.795 221.162 317.041 241.24C354.038 257.303 388.722 237.224 401.44 225.177C416.085 214.468 456.242 194.256 499.713 199.075C554.052 205.098 597.986 199.075 621.109 160.925C628.653 148.479 662.73 104.705 704.352 120.768C745.973 136.831 791.063 60.5315 798 52.5" stroke="#0E395F" stroke-width="3" stroke-linecap="round" stroke-linejoin="round"/>
<path d="M55 289.224C64.8264 267.157 94.3057 224.644 133.611 231.129C182.743 239.236 199.394 280.734 211.521 289.224C254.336 319.196 247.317 289.224 290.132 209.513C352.006 94.3189 365.234 209.513 399.626 209.513C423.491 209.513 431.542 120.402 500.698 152.769C532.985 167.881 561.762 166.28 576.502 131.153C591.241 96.0261 636.864 69.0054 668.449 85.2178C700.034 101.43 723.342 86.4266 730.917 77.1116C756.185 46.0379 775.136 70.3564 799 96.0261" stroke="#F15A4F" stroke-width="3" stroke-linecap="round" stroke-linejoin="round"/>
<g filter="url(#filter0_d_424_39978)">
<circle r="5" transform="matrix(-1 0 0 1 515 99)" fill="#F15A4F"/>
<circle r="6" transform="matrix(-1 0 0 1 515 99)" stroke="#E5E5E5" stroke-opacity="0.8" stroke-width="2"/>
</g>
<rect width="111" height="28" transform="translate(460 59.5)" fill="#0E395F"/>
<path d="M474.792 68.27V69.572H470.662V72.442H473.882V73.744H470.662V78H469.066V68.27H474.792ZM478.147 71.406C478.38 71.014 478.688 70.7107 479.071 70.496C479.463 70.272 479.925 70.16 480.457 70.16V71.812H480.051C479.426 71.812 478.95 71.9707 478.623 72.288C478.306 72.6053 478.147 73.156 478.147 73.94V78H476.551V70.286H478.147V71.406ZM483.016 69.264C482.727 69.264 482.484 69.166 482.288 68.97C482.092 68.774 481.994 68.5313 481.994 68.242C481.994 67.9527 482.092 67.71 482.288 67.514C482.484 67.318 482.727 67.22 483.016 67.22C483.296 67.22 483.534 67.318 483.73 67.514C483.926 67.71 484.024 67.9527 484.024 68.242C484.024 68.5313 483.926 68.774 483.73 68.97C483.534 69.166 483.296 69.264 483.016 69.264ZM483.8 70.286V78H482.204V70.286H483.8ZM486.819 78.098C486.53 78.098 486.287 78 486.091 77.804C485.895 77.608 485.797 77.3653 485.797 77.076C485.797 76.7867 485.895 76.544 486.091 76.348C486.287 76.152 486.53 76.054 486.819 76.054C487.099 76.054 487.337 76.152 487.533 76.348C487.729 76.544 487.827 76.7867 487.827 77.076C487.827 77.3653 487.729 77.608 487.533 77.804C487.337 78 487.099 78.098 486.819 78.098ZM486.819 72.218C486.53 72.218 486.287 72.12 486.091 71.924C485.895 71.728 485.797 71.4853 485.797 71.196C485.797 70.9067 485.895 70.664 486.091 70.468C486.287 70.272 486.53 70.174 486.819 70.174C487.099 70.174 487.337 70.272 487.533 70.468C487.729 70.664 487.827 70.9067 487.827 71.196C487.827 71.4853 487.729 71.728 487.533 71.924C487.337 72.12 487.099 72.218 486.819 72.218ZM500.174 69.166H495.484V71.952C495.68 71.6907 495.969 71.4713 496.352 71.294C496.744 71.1167 497.159 71.028 497.598 71.028C498.382 71.028 499.016 71.196 499.502 71.532C499.996 71.868 500.346 72.2927 500.552 72.806C500.766 73.3193 500.874 73.8607 500.874 74.43C500.874 75.1207 500.738 75.7367 500.468 76.278C500.206 76.81 499.81 77.23 499.278 77.538C498.755 77.846 498.111 78 497.346 78C496.328 78 495.512 77.748 494.896 77.244C494.28 76.74 493.911 76.0727 493.79 75.242H495.344C495.446 75.6807 495.675 76.0307 496.03 76.292C496.384 76.544 496.828 76.67 497.36 76.67C498.022 76.67 498.517 76.4693 498.844 76.068C499.18 75.6667 499.348 75.1347 499.348 74.472C499.348 73.8 499.18 73.2867 498.844 72.932C498.508 72.568 498.013 72.386 497.36 72.386C496.902 72.386 496.515 72.5027 496.198 72.736C495.89 72.96 495.666 73.268 495.526 73.66H494.014V67.766H500.174V69.166ZM504.775 76.082L503.081 79.946H502.045L503.039 76.082H504.775ZM507.122 75.83C508.018 75.0553 508.722 74.4207 509.236 73.926C509.758 73.422 510.192 72.8993 510.538 72.358C510.883 71.8167 511.056 71.2753 511.056 70.734C511.056 70.174 510.92 69.7353 510.65 69.418C510.388 69.1007 509.973 68.942 509.404 68.942C508.853 68.942 508.424 69.1193 508.116 69.474C507.817 69.8193 507.658 70.286 507.64 70.874H506.1C506.128 69.81 506.445 68.998 507.052 68.438C507.668 67.8687 508.447 67.584 509.39 67.584C510.407 67.584 511.2 67.864 511.77 68.424C512.348 68.984 512.638 69.7307 512.638 70.664C512.638 71.336 512.465 71.9847 512.12 72.61C511.784 73.226 511.378 73.7813 510.902 74.276C510.435 74.7613 509.838 75.326 509.11 75.97L508.48 76.53H512.918V77.86H506.114V76.698L507.122 75.83ZM521.18 69.166H516.49V71.952C516.686 71.6907 516.975 71.4713 517.358 71.294C517.75 71.1167 518.165 71.028 518.604 71.028C519.388 71.028 520.023 71.196 520.508 71.532C521.003 71.868 521.353 72.2927 521.558 72.806C521.773 73.3193 521.88 73.8607 521.88 74.43C521.88 75.1207 521.745 75.7367 521.474 76.278C521.213 76.81 520.816 77.23 520.284 77.538C519.761 77.846 519.117 78 518.352 78C517.335 78 516.518 77.748 515.902 77.244C515.286 76.74 514.917 76.0727 514.796 75.242H516.35C516.453 75.6807 516.681 76.0307 517.036 76.292C517.391 76.544 517.834 76.67 518.366 76.67C519.029 76.67 519.523 76.4693 519.85 76.068C520.186 75.6667 520.354 75.1347 520.354 74.472C520.354 73.8 520.186 73.2867 519.85 72.932C519.514 72.568 519.019 72.386 518.366 72.386C517.909 72.386 517.521 72.5027 517.204 72.736C516.896 72.96 516.672 73.268 516.532 73.66H515.02V67.766H521.18V69.166ZM529.309 70.16C529.207 69.7307 529.02 69.4087 528.749 69.194C528.479 68.9793 528.101 68.872 527.615 68.872C526.878 68.872 526.327 69.1567 525.963 69.726C525.599 70.286 525.408 71.2193 525.389 72.526C525.632 72.1153 525.987 71.798 526.453 71.574C526.92 71.35 527.424 71.238 527.965 71.238C528.581 71.238 529.123 71.3733 529.589 71.644C530.065 71.9053 530.434 72.288 530.695 72.792C530.966 73.296 531.101 73.898 531.101 74.598C531.101 75.2513 530.971 75.8347 530.709 76.348C530.457 76.8613 530.079 77.2673 529.575 77.566C529.071 77.8553 528.465 78 527.755 78C526.794 78 526.038 77.79 525.487 77.37C524.946 76.9407 524.563 76.3387 524.339 75.564C524.125 74.7893 524.017 73.8233 524.017 72.666C524.017 69.25 525.221 67.542 527.629 67.542C528.563 67.542 529.295 67.794 529.827 68.298C530.369 68.802 530.686 69.4227 530.779 70.16H529.309ZM527.615 72.582C527.046 72.582 526.561 72.7547 526.159 73.1C525.767 73.436 525.571 73.926 525.571 74.57C525.571 75.214 525.753 75.7273 526.117 76.11C526.491 76.4833 527.009 76.67 527.671 76.67C528.259 76.67 528.721 76.488 529.057 76.124C529.403 75.76 529.575 75.2747 529.575 74.668C529.575 74.0333 529.407 73.5293 529.071 73.156C528.745 72.7733 528.259 72.582 527.615 72.582ZM535.044 76.082L533.35 79.946H532.314L533.308 76.082H535.044ZM543.088 69.166H538.398V71.952C538.594 71.6907 538.884 71.4713 539.266 71.294C539.658 71.1167 540.074 71.028 540.512 71.028C541.296 71.028 541.931 71.196 542.416 71.532C542.911 71.868 543.261 72.2927 543.466 72.806C543.681 73.3193 543.788 73.8607 543.788 74.43C543.788 75.1207 543.653 75.7367 543.382 76.278C543.121 76.81 542.724 77.23 542.192 77.538C541.67 77.846 541.026 78 540.26 78C539.243 78 538.426 77.748 537.81 77.244C537.194 76.74 536.826 76.0727 536.704 75.242H538.258C538.361 75.6807 538.59 76.0307 538.944 76.292C539.299 76.544 539.742 76.67 540.274 76.67C540.937 76.67 541.432 76.4693 541.758 76.068C542.094 75.6667 542.262 75.1347 542.262 74.472C542.262 73.8 542.094 73.2867 541.758 72.932C541.422 72.568 540.928 72.386 540.274 72.386C539.817 72.386 539.43 72.5027 539.112 72.736C538.804 72.96 538.58 73.268 538.44 73.66H536.928V67.766H543.088V69.166ZM547.718 75.228C547.811 75.6947 548.012 76.0493 548.32 76.292C548.628 76.5347 549.043 76.656 549.566 76.656C550.228 76.656 550.714 76.3947 551.022 75.872C551.33 75.3493 551.484 74.458 551.484 73.198C551.26 73.5153 550.942 73.7627 550.532 73.94C550.13 74.108 549.692 74.192 549.216 74.192C548.609 74.192 548.058 74.0707 547.564 73.828C547.069 73.576 546.677 73.2073 546.388 72.722C546.108 72.2273 545.968 71.63 545.968 70.93C545.968 69.9033 546.266 69.0867 546.864 68.48C547.47 67.864 548.301 67.556 549.356 67.556C550.625 67.556 551.526 67.9807 552.058 68.83C552.599 69.67 552.87 70.9627 552.87 72.708C552.87 73.912 552.767 74.8967 552.562 75.662C552.366 76.4273 552.02 77.006 551.526 77.398C551.031 77.79 550.345 77.986 549.468 77.986C548.469 77.986 547.699 77.7247 547.158 77.202C546.616 76.6793 546.313 76.0213 546.248 75.228H547.718ZM549.496 72.848C550.056 72.848 550.494 72.6753 550.812 72.33C551.138 71.9753 551.302 71.5087 551.302 70.93C551.302 70.286 551.129 69.7867 550.784 69.432C550.448 69.068 549.986 68.886 549.398 68.886C548.81 68.886 548.343 69.0727 547.998 69.446C547.662 69.81 547.494 70.2907 547.494 70.888C547.494 71.4573 547.657 71.9287 547.984 72.302C548.32 72.666 548.824 72.848 549.496 72.848ZM556.618 72.666C555.648 72.1807 555.162 71.4153 555.162 70.37C555.162 69.866 555.288 69.404 555.54 68.984C555.792 68.564 556.17 68.2327 556.674 67.99C557.178 67.738 557.794 67.612 558.522 67.612C559.241 67.612 559.852 67.738 560.356 67.99C560.87 68.2327 561.252 68.564 561.504 68.984C561.756 69.404 561.882 69.866 561.882 70.37C561.882 70.8927 561.747 71.3547 561.476 71.756C561.215 72.148 560.865 72.4513 560.426 72.666C560.958 72.862 561.378 73.184 561.686 73.632C561.994 74.0707 562.148 74.5887 562.148 75.186C562.148 75.7927 561.994 76.3293 561.686 76.796C561.378 77.2627 560.949 77.622 560.398 77.874C559.848 78.126 559.222 78.252 558.522 78.252C557.822 78.252 557.197 78.126 556.646 77.874C556.105 77.622 555.68 77.2627 555.372 76.796C555.064 76.3293 554.91 75.7927 554.91 75.186C554.91 74.5793 555.064 74.0567 555.372 73.618C555.68 73.1793 556.096 72.862 556.618 72.666ZM560.356 70.566C560.356 70.0433 560.193 69.642 559.866 69.362C559.54 69.082 559.092 68.942 558.522 68.942C557.962 68.942 557.519 69.082 557.192 69.362C556.866 69.642 556.702 70.048 556.702 70.58C556.702 71.0467 556.87 71.4293 557.206 71.728C557.552 72.0173 557.99 72.162 558.522 72.162C559.054 72.162 559.493 72.0127 559.838 71.714C560.184 71.4153 560.356 71.0327 560.356 70.566ZM558.522 73.366C557.906 73.366 557.402 73.52 557.01 73.828C556.628 74.1267 556.436 74.5607 556.436 75.13C556.436 75.662 556.623 76.096 556.996 76.432C557.37 76.7587 557.878 76.922 558.522 76.922C559.157 76.922 559.656 76.754 560.02 76.418C560.394 76.082 560.58 75.6527 560.58 75.13C560.58 74.57 560.389 74.136 560.006 73.828C559.633 73.52 559.138 73.366 558.522 73.366Z" fill="white"/>
<defs>
<filter id="filter0_d_424_39978" x="503" y="89" width="24" height="24" filterUnits="userSpaceOnUse" color-interpolation-filters="sRGB">
<feFlood flood-opacity="0" result="BackgroundImageFix"/>
<feColorMatrix in="SourceAlpha" type="matrix" values="0 0 0 0 0 0 0 0 0 0 0 0 0 0 0 0 0 0 127 0" result="hardAlpha"/>
<feOffset dy="2"/>
<feGaussianBlur stdDeviation="1"/>
<feComposite in2="hardAlpha" operator="out"/>
<feColorMatrix type="matrix" values="0 0 0 0 0 0 0 0 0 0 0 0 0 0 0 0 0 0 0.1 0"/>
<feBlend mode="normal" in2="BackgroundImageFix" result="effect1_dropShadow_424_39978"/>
<feBlend mode="normal" in="SourceGraphic" in2="effect1_dropShadow_424_39978" result="shape"/>
</filter>
</defs>
</svg>
